<svg width="64" height="64" viewBox="0 0 64 64" fill="none" xmlns="http://www.w3.org/2000/svg">
<path fill-rule="evenodd" clip-rule="evenodd" d="M32.0003 12.1874L32.8637 11.2158C38.5627 4.80174 48.3831 4.22368 54.791 9.92442C60.4781 14.9815 61.6371 23.388 57.6382 29.7743C55.1843 33.6932 47.0426 43.0565 33.0982 58.0226L31.987 59.2153L30.8907 58.0089C27.1635 53.9077 23.8534 50.2385 20.9594 47.0001H24.9866C27.1246 49.3828 29.4673 51.9776 32.0143 54.7838C45.1218 40.683 52.8508 31.7671 55.0956 28.1822C58.321 23.031 57.3856 16.2461 52.7972 12.166C47.6276 7.56696 39.7045 8.03335 35.1063 13.2085L32.0013 16.7024L30.88 15.4418L28.8932 13.2082C24.2968 8.03327 16.3753 7.56695 11.2025 12.1661C8.84012 14.2675 7.45382 17.0744 7.0939 20.0001H4.07568C4.44803 16.2427 6.18206 12.6168 9.20889 9.92435C15.6205 4.22375 25.4391 4.80174 31.1355 11.2152L32.0003 12.1874Z" fill="#535966"/>
<path d="M0.000488281 27L0.000488281 24L29.0001 24V27H0.000488281Z" fill="#00BFB3"/>
<path d="M10 43V40H35V43H10Z" fill="#00BFB3"/>
<path d="M24 32V35H2L2 32L24 32Z" fill="#00BFB3"/>
<path d="M39.4108 32V35H31.0938V32H39.4108Z" fill="#00BFB3"/>
</svg>
